<svg width="150" height="60" viewBox="0 0 184 60" fill="none" xmlns="http://www.w3.org/2000/svg">
<rect width="150" height="60" fill="#F5F5F5"/>
<path d="M12.0604 59.6767C11.588 59.6767 11.127 59.6706 10.6582 59.6601C9.68725 59.6474 8.71853 59.5628 7.76002 59.407C6.86627 59.253 6.00045 58.9664 5.19115 58.5568C4.38926 58.1506 3.65788 57.618 3.02501 56.9793C2.38299 56.3482 1.84847 55.6162 1.44265 54.8123C1.03235 54.0033 0.748404 53.136 0.600693 52.2408C0.441178 51.2789 0.354874 50.3063 0.342524 49.3313C0.332694 49.0041 0.319824 47.9145 0.319824 47.9145V12.0688C0.319824 12.0688 0.333531 10.9959 0.342602 10.6807C0.354426 9.70727 0.440229 8.73615 0.599266 7.77575C0.74725 6.87811 1.03142 6.00837 1.44193 5.19663C1.84627 4.39333 2.37781 3.66078 3.01597 3.0274C3.65341 2.388 4.38714 1.85263 5.19039 1.44081C5.99783 1.03253 6.86201 0.748 7.75396 0.596765C8.71562 0.439367 9.6877 0.354271 10.6621 0.342189L12.0612 0.323242H171.41L172.826 0.342949C173.791 0.354431 174.755 0.438768 175.708 0.595244C176.609 0.748376 177.482 1.03489 178.298 1.44536C179.908 2.27529 181.217 3.58832 182.043 5.20042C182.447 6.00655 182.727 6.8692 182.873 7.75909C183.034 8.72737 183.124 9.70611 183.142 10.6875C183.147 11.127 183.147 11.599 183.147 12.0688C183.159 12.6507 183.159 13.2045 183.159 13.7629V46.2384C183.159 46.8022 183.159 47.3523 183.147 47.9069C183.147 48.4115 183.147 48.8737 183.141 49.3495C183.123 50.3134 183.034 51.2747 182.876 52.2256C182.731 53.1273 182.449 54.0013 182.038 54.817C181.63 55.6121 181.098 56.3378 180.464 56.9672C179.83 57.6093 179.098 58.1451 178.294 58.5539C177.479 58.9666 176.608 59.2542 175.708 59.407C174.749 59.5637 173.78 59.6483 172.809 59.6601C172.355 59.6706 171.879 59.6767 171.418 59.6767L169.737 59.6798L12.0604 59.6767Z" fill="black"/>
<path d="M37.3719 30.4665C37.4057 27.8341 38.7848 25.4025 41.0258 24.0237C39.6056 21.9939 37.3122 20.7531 34.8373 20.6756C32.2335 20.4021 29.7093 22.2348 28.3825 22.2348C27.03 22.2348 24.9871 20.7027 22.7873 20.748C19.8929 20.8416 17.2599 22.4485 15.8517 24.9809C12.8529 30.1767 15.0898 37.8129 17.9624 42.0128C19.3996 44.0693 21.0793 46.3666 23.2771 46.2851C25.4278 46.1959 26.2311 44.9127 28.8272 44.9127C31.3992 44.9127 32.1528 46.2851 34.3953 46.2333C36.7031 46.1958 38.1571 44.1676 39.5439 42.0916C40.5765 40.6262 41.3712 39.0066 41.8983 37.2928C39.1573 36.1327 37.3751 33.4448 37.3719 30.4665V30.4665Z" fill="white"/>
<path d="M33.1363 17.9134C34.3946 16.4017 35.0145 14.4587 34.8644 12.4969C32.942 12.699 31.1662 13.6185 29.8909 15.0722C28.6316 16.5065 27.9936 18.3829 28.1175 20.2881C30.0657 20.3082 31.9155 19.433 33.1363 17.9134V17.9134Z" fill="white"/>
<path fill-rule="evenodd" clip-rule="evenodd" d="M57.219 41.0787H64.5585L66.3195 46.287H69.4812L62.5294 27.0177H59.2996L52.3478 46.287H55.4565L57.219 41.0787ZM63.7969 38.6754H57.9792L60.8487 30.2227H60.9289L63.7969 38.6754Z" fill="white"/>
<path fill-rule="evenodd" clip-rule="evenodd" d="M78.6361 46.434C82.1597 46.434 84.4947 43.6291 84.4947 39.2633C84.4947 34.9097 82.146 32.0912 78.5832 32.0911C76.7498 32.032 75.0324 32.9862 74.1132 34.5748H74.0602V32.2381H71.2709V50.9346H74.1525V43.9761H74.2192C75.0993 45.5747 76.8148 46.5293 78.6361 46.434ZM77.823 34.5491C80.064 34.5491 81.5328 36.419 81.5328 39.2633C81.5328 42.1334 80.0641 43.9897 77.823 43.9897C75.6213 43.9897 74.1404 42.094 74.1404 39.2633C74.1404 36.4584 75.6213 34.5491 77.823 34.5491Z" fill="white"/>
<path fill-rule="evenodd" clip-rule="evenodd" d="M94.0873 46.434C97.6109 46.434 99.9458 43.6291 99.9458 39.2633C99.9458 34.9097 97.5972 32.0912 94.0342 32.0912C92.2009 32.032 90.4834 32.9862 89.5642 34.5748H89.5112V32.2381H86.722V50.9346H89.6036V43.9761H89.6703C90.5504 45.5747 92.2659 46.5293 94.0873 46.434ZM93.2741 34.5491C95.5152 34.5491 96.984 36.419 96.984 39.2633H96.984C96.984 42.1334 95.5152 43.9897 93.2741 43.9897C91.0724 43.9897 89.5915 42.094 89.5915 39.2633C89.5915 36.4584 91.0724 34.5491 93.2741 34.5491Z" fill="white"/>
<path d="M110.158 40.9181C110.371 42.829 112.226 44.0836 114.761 44.0836C117.19 44.0836 118.937 42.8289 118.937 41.1059C118.937 39.6103 117.883 38.7147 115.388 38.101L112.892 37.4994C109.357 36.6447 107.715 34.99 107.715 32.3047C107.715 28.9801 110.61 26.6964 114.722 26.6964C118.79 26.6964 121.579 28.9801 121.673 32.3047H118.764C118.59 30.3818 117.002 29.221 114.681 29.221C112.359 29.221 110.771 30.3954 110.771 32.1047C110.771 33.467 111.785 34.2687 114.267 34.8823L116.389 35.4036C120.339 36.3386 121.981 37.9267 121.981 40.7452C121.981 44.3503 119.111 46.6081 114.547 46.6081C110.277 46.6081 107.394 44.4033 107.208 40.918L110.158 40.9181Z" fill="white"/>
<path d="M128.2 28.9135V32.2381H130.869V34.5218H128.2V42.2668C128.2 43.47 128.734 44.0306 129.908 44.0306C130.225 44.0251 130.541 44.0028 130.856 43.9639V46.2339C130.328 46.3326 129.792 46.3773 129.255 46.3673C126.413 46.3673 125.304 45.2989 125.304 42.5743V34.5218H123.263V32.2381H125.304V28.9135H128.2Z" fill="white"/>
<path fill-rule="evenodd" clip-rule="evenodd" d="M139.073 32.0654C135.017 32.0654 132.415 34.8431 132.415 39.2634C132.415 43.6958 134.991 46.4613 139.073 46.4613C143.157 46.4613 145.733 43.6958 145.733 39.2634C145.733 34.843 143.144 32.0654 139.073 32.0654ZM139.073 34.4415C141.408 34.4415 142.797 36.2311 142.797 39.2634H142.797C142.797 42.3077 141.408 44.0837 139.073 44.0837C136.738 44.0837 135.351 42.3077 135.351 39.2634C135.351 36.2448 136.738 34.4415 139.073 34.4415Z" fill="white"/>
<path d="M148.109 32.2381H150.857V34.6294H150.924C151.307 33.09 152.716 32.0306 154.3 32.0911C154.632 32.09 154.964 32.1261 155.288 32.1987V34.8961C154.868 34.7679 154.431 34.709 153.993 34.7218C153.146 34.6874 152.326 35.0253 151.749 35.6467C151.171 36.2681 150.894 37.111 150.99 37.954V46.287H148.109L148.109 32.2381Z" fill="white"/>
<path fill-rule="evenodd" clip-rule="evenodd" d="M162.529 46.4613C165.704 46.4613 168.186 44.711 168.573 42.1607L165.837 42.1607C165.312 43.4643 163.994 44.2678 162.595 44.1367C161.547 44.1753 160.532 43.7613 159.81 43C159.087 42.2386 158.726 41.2033 158.819 40.1574V39.9831H168.734V38.9951C168.734 34.7355 166.291 32.0654 162.407 32.0654C158.458 32.0654 155.91 34.9234 155.91 39.33C155.91 43.723 158.445 46.4613 162.529 46.4613ZM165.851 37.9677L158.832 37.9677C158.83 37.0192 159.206 36.109 159.877 35.4394C160.549 34.7699 161.46 34.3964 162.407 34.4021C163.348 34.3819 164.254 34.7551 164.908 35.432C165.561 36.1088 165.903 37.0279 165.851 37.9677Z" fill="white"/>
<path fill-rule="evenodd" clip-rule="evenodd" d="M60.8828 13.7827C60.0395 12.8915 58.8413 12.4257 57.618 12.5136H54.2761V21.7725H57.618C60.3739 21.7725 61.9714 20.0722 61.9714 17.1142C62.1256 15.8966 61.7261 14.6739 60.8828 13.7827ZM57.4575 20.4631H55.7131V13.822H57.4575C58.3271 13.7737 59.1727 14.1168 59.7632 14.7576C60.3536 15.3983 60.627 16.2696 60.5086 17.1331C60.6363 18.0001 60.3668 18.8787 59.7749 19.5247C59.183 20.1706 58.3317 20.5154 57.4575 20.4631Z" fill="white"/>
<path fill-rule="evenodd" clip-rule="evenodd" d="M65.1432 15.1478C64.075 15.8112 63.4749 17.0232 63.5946 18.2757C63.4726 19.5294 64.0722 20.7438 65.1414 21.4087C66.2105 22.0735 67.5641 22.0735 68.6333 21.4087C69.7024 20.7438 70.302 19.5294 70.18 18.2757C70.2997 17.0232 69.6996 15.8112 68.6314 15.1478C67.5631 14.4844 66.2115 14.4844 65.1432 15.1478ZM66.8896 15.8753C68.0828 15.8753 68.7627 16.7611 68.7627 18.2757H68.7627C68.7627 19.7963 68.0828 20.6813 66.8896 20.6813C65.6919 20.6813 65.0181 19.8024 65.0181 18.2757C65.0181 16.7611 65.6918 15.8753 66.8896 15.8753Z" fill="white"/>
<path d="M78.9337 21.7723H77.5043L76.0612 16.6262H75.9522L74.5152 21.7723H73.0994L71.1748 14.785H72.5725L73.8232 20.1167H73.9262L75.3617 14.785H76.6836L78.1191 20.1167H78.2281L79.4728 14.785H80.8507L78.9337 21.7723Z" fill="white"/>
<path d="M82.4694 14.785H83.7958V15.895H83.8988C84.2569 15.0778 85.0936 14.5779 85.9824 14.6502C86.6706 14.5984 87.3449 14.8626 87.815 15.3681C88.2852 15.8737 88.5001 16.5658 88.3991 17.249V21.7723H87.0211V17.5953C87.0211 16.4724 86.5336 15.914 85.5145 15.914C85.0477 15.8922 84.5947 16.0755 84.2743 16.4159C83.9538 16.7562 83.7979 17.2197 83.8473 17.6847V21.7723H82.4694L82.4694 14.785Z" fill="white"/>
<path d="M90.5947 12.0574H91.9726V21.7723H90.5947V12.0574Z" fill="white"/>
<path fill-rule="evenodd" clip-rule="evenodd" d="M95.437 15.1477C94.3687 15.8111 93.7685 17.0232 93.8881 18.2757C93.7663 19.5295 94.3659 20.7439 95.4352 21.4086C96.5044 22.0734 97.8579 22.0734 98.9272 21.4086C99.9964 20.7439 100.596 19.5295 100.474 18.2757C100.594 17.0232 99.9937 15.8111 98.9254 15.1477C97.857 14.4843 96.5053 14.4843 95.437 15.1477ZM97.1831 15.8753C98.3762 15.8753 99.0561 16.7611 99.0561 18.2757H99.0562C99.0562 19.7963 98.3763 20.6813 97.1831 20.6813C95.9854 20.6813 95.3115 19.8024 95.3115 18.2757C95.3115 16.7611 95.9853 15.8753 97.1831 15.8753Z" fill="white"/>
<path fill-rule="evenodd" clip-rule="evenodd" d="M104.522 17.7104C102.861 17.8135 101.925 18.5386 101.925 19.7963C101.927 20.3927 102.182 20.9602 102.625 21.3586C103.068 21.7571 103.66 21.9492 104.252 21.8875C105.098 21.9266 105.899 21.5075 106.349 20.7904H106.458V21.7723H107.785V16.9982C107.785 15.5222 106.798 14.6502 105.047 14.6502C103.463 14.6502 102.335 15.42 102.194 16.6201H103.528C103.681 16.1261 104.214 15.8435 104.984 15.8435C105.925 15.8435 106.413 16.2602 106.413 16.9982V17.6013L104.522 17.7104ZM106.413 18.6151V19.1993C106.383 19.6446 106.173 20.0586 105.833 20.3465C105.492 20.6345 105.049 20.7717 104.605 20.7267C103.855 20.7267 103.31 20.3608 103.31 19.7319C103.31 19.1159 103.746 18.7886 104.708 18.7242L106.413 18.6151Z" fill="white"/>
<path fill-rule="evenodd" clip-rule="evenodd" d="M112.494 14.6691C110.73 14.6691 109.596 16.0678 109.596 18.2757C109.596 20.4888 110.718 21.8875 112.494 21.8875C113.395 21.9207 114.239 21.4511 114.687 20.6684H114.796V21.7723H116.116V12.0574H114.738V15.895H114.635C114.219 15.1057 113.385 14.628 112.494 14.6691ZM112.885 20.6495C111.717 20.6495 111.019 19.7577 111.019 18.2757H111.019C111.019 16.8058 111.725 15.9079 112.885 15.9079C114.039 15.9079 114.764 16.8255 114.764 18.2817C114.764 19.7448 114.046 20.6495 112.885 20.6495Z" fill="white"/>
<path fill-rule="evenodd" clip-rule="evenodd" d="M123.366 15.1478C122.298 15.8112 121.697 17.0232 121.817 18.2757C121.695 19.5294 122.295 20.7438 123.364 21.4087C124.433 22.0735 125.787 22.0735 126.856 21.4087C127.925 20.7438 128.525 19.5294 128.403 18.2757C128.522 17.0232 127.922 15.8112 126.854 15.1478C125.786 14.4844 124.434 14.4844 123.366 15.1478ZM125.112 15.8753C126.305 15.8753 126.985 16.7611 126.985 18.2757C126.985 19.7963 126.305 20.6813 125.112 20.6813C123.914 20.6813 123.241 19.8024 123.241 18.2757C123.241 16.7611 123.914 15.8753 125.112 15.8753Z" fill="white"/>
<path d="M130.251 14.785H131.578V15.895H131.681C132.039 15.0778 132.876 14.5779 133.764 14.6502C134.453 14.5984 135.127 14.8626 135.597 15.3681C136.067 15.8737 136.282 16.5658 136.181 17.249V21.7723H134.803V17.5953C134.803 16.4724 134.316 15.914 133.296 15.914C132.83 15.8922 132.377 16.0755 132.056 16.4159C131.736 16.7562 131.58 17.2197 131.629 17.6847V21.7723H130.251V14.785Z" fill="white"/>
<path d="M143.967 13.0454V14.8168H145.48V15.9784H143.967V19.5713C143.967 20.3032 144.269 20.6237 144.954 20.6237C145.13 20.6231 145.305 20.6125 145.48 20.5919V21.7405C145.232 21.7848 144.982 21.8084 144.73 21.811C143.198 21.811 142.588 21.2715 142.588 19.9243V15.9783H141.479V14.8168H142.588V13.0454H143.967Z" fill="white"/>
<path d="M147.362 12.0574H148.728V15.9079H148.837C149.212 15.0835 150.064 14.5829 150.966 14.6562C151.65 14.619 152.315 14.889 152.78 15.3927C153.245 15.8964 153.462 16.5814 153.37 17.2611V21.7723H151.991V17.6013C151.991 16.4852 151.472 15.92 150.498 15.92C150.019 15.8807 149.546 16.0551 149.207 16.3966C148.868 16.7381 148.697 17.212 148.74 17.6915V21.7723H147.362L147.362 12.0574Z" fill="white"/>
<path fill-rule="evenodd" clip-rule="evenodd" d="M158.38 21.9072C159.744 22.0553 161.019 21.2037 161.405 19.8857L160.078 19.8857C159.748 20.4791 159.092 20.8137 158.417 20.7327C157.897 20.7385 157.399 20.5246 157.045 20.1435C156.691 19.7624 156.514 19.2495 156.558 18.731V18.6537H161.488V18.1726C161.488 15.9784 160.316 14.6502 158.373 14.6502C157.44 14.6422 156.549 15.0399 155.932 15.7403C155.314 16.4407 155.03 17.3748 155.154 18.3007C155.027 19.2239 155.312 20.1566 155.933 20.8511C156.554 21.5456 157.449 21.9318 158.38 21.9072ZM160.085 17.6339H156.558C156.552 17.1521 156.74 16.6881 157.081 16.3473C157.421 16.0065 157.884 15.8178 158.366 15.8238C158.841 15.8129 159.298 16.0033 159.626 16.348C159.953 16.6927 160.12 17.1597 160.085 17.6339Z" fill="white"/>
</svg>
