<svg width="48" height="48" viewBox="0 0 48 48" fill="none" xmlns="http://www.w3.org/2000/svg">
<rect width="48" height="48"/>
<path fill-rule="evenodd" clip-rule="evenodd" d="M24 0C23.6346 0 23.2706 0.138786 22.9922 0.417184L16.247 7.16244C15.347 8.06243 15.9828 9.59992 17.2548 9.59992H21.6V21.5998H9.60025V17.2545C9.60025 15.9826 8.06277 15.3445 7.16279 16.242L0.417593 22.9873C-0.139198 23.5441 -0.139198 24.4508 0.417593 25.0076L7.16279 31.7529C8.06277 32.6528 9.60025 32.017 9.60025 30.745V26.3998H21.6V38.3997H17.2548C15.9828 38.3997 15.347 39.9372 16.247 40.8372L22.9922 47.5824C23.549 48.1392 24.4557 48.1392 25.0125 47.5824L31.7577 40.8372C32.6553 39.9372 32.0172 38.3997 30.7452 38.3997H26.4V26.3998H38.3998V30.745C38.3998 32.017 39.9372 32.6528 40.8372 31.7529L47.5824 25.0076C48.1392 24.4508 48.1392 23.5441 47.5824 22.9873L40.8372 16.242C39.9372 15.3445 38.3998 15.9826 38.3998 17.2545V21.5998H26.4V9.59992H30.7452C32.0172 9.59992 32.6553 8.06243 31.7577 7.16244L25.0125 0.417184C24.7341 0.138786 24.3654 0 24 0Z" fill="#5558DB"/>
</svg>
