<svg width="36" height="23" viewBox="0 0 36 23" fill="none" xmlns="http://www.w3.org/2000/svg">
<rect width="36" height="23" />
<path fill-rule="evenodd" clip-rule="evenodd" d="M0 11.5C0 5.14944 5.18143 0 11.5714 0C14.58 0 17.3186 1.14361 19.3757 3.01556L16.6114 5.70528C15.2582 4.5425 13.5 3.83333 11.5714 3.83333C7.30929 3.83333 3.85714 7.26417 3.85714 11.5C3.85714 15.7358 7.30929 19.1667 11.5714 19.1667C15.3932 19.1667 18.6718 16.4035 19.2857 12.7778H11.5714V8.94444H22.8407L22.905 9.2C23.0561 9.94111 23.1429 10.711 23.1429 11.5C23.1429 17.8506 17.9614 23 11.5714 23C5.18143 23 0 17.8506 0 11.5ZM29.5714 8.94444V5.11111H32.1429V8.94444H36V11.5H32.1429V15.3333H29.5714V11.5H25.7143V8.94444H29.5714Z" fill="white"/>
</svg>
