<svg width="450" height="917" viewBox="0 0 450 917" fill="none" xmlns="http://www.w3.org/2000/svg">
<rect width="450" height="917" fill="#F5F5F5"/>
<path fill-rule="evenodd" clip-rule="evenodd" d="M4.21875 111.109H2.8125C1.2592 111.109 0 112.368 0 113.922V139.238C0 140.791 1.2592 142.051 2.8125 142.051H4.21875V111.109ZM447.188 191.276H445.781V288.321H447.188C448.741 288.321 450 287.061 450 285.508V194.089C450 192.535 448.741 191.276 447.188 191.276ZM2.8125 170.179H4.21875V232.063H2.8125C1.2592 232.063 0 230.804 0 229.25V172.992C0 171.439 1.2592 170.179 2.8125 170.179ZM4.21875 247.534H2.8125C1.2592 247.534 0 248.793 0 250.347V306.604C0 308.158 1.2592 309.417 2.8125 309.417H4.21875V247.534Z" fill="#EEEEEE"/>
<path fill-rule="evenodd" clip-rule="evenodd" d="M4.21875 111.109H2.8125C1.2592 111.109 0 112.368 0 113.922V139.238C0 140.791 1.2592 142.051 2.8125 142.051H4.21875V111.109ZM447.188 191.276H445.781V288.321H447.188C448.741 288.321 450 287.061 450 285.508V194.089C450 192.535 448.741 191.276 447.188 191.276ZM2.8125 170.179H4.21875V232.063H2.8125C1.2592 232.063 0 230.804 0 229.25V172.992C0 171.439 1.2592 170.179 2.8125 170.179ZM4.21875 247.534H2.8125C1.2592 247.534 0 248.793 0 250.347V306.604C0 308.158 1.2592 309.417 2.8125 309.417H4.21875V247.534Z" fill="url(#paint0_linear_0_1)" fill-opacity="0.1" style="mix-blend-mode:multiply"/>
<path fill-rule="evenodd" clip-rule="evenodd" d="M83.5389 0H366.461C394.042 0 404.044 2.87218 414.127 8.26554C424.211 13.6589 432.124 21.5734 437.517 31.6582C442.909 41.7429 445.781 51.7459 445.781 79.331V837.669C445.781 865.254 442.909 875.257 437.517 885.342C432.124 895.427 424.211 903.341 414.127 908.734C404.044 914.128 394.042 917 366.461 917H83.5389C55.9576 917 45.9559 914.128 35.8726 908.734C25.7893 903.341 17.8758 895.427 12.4832 885.342C7.09054 875.257 4.21875 865.254 4.21875 837.669V79.331C4.21875 51.7459 7.09054 41.7429 12.4832 31.6582C17.8758 21.5734 25.7893 13.6589 35.8726 8.26554C45.9559 2.87218 55.9576 0 83.5389 0Z" fill="#EEEEEE"/>
<path fill-rule="evenodd" clip-rule="evenodd" d="M83.5389 0H366.461C394.042 0 404.044 2.87218 414.127 8.26554C424.211 13.6589 432.124 21.5734 437.517 31.6582C442.909 41.7429 445.781 51.7459 445.781 79.331V837.669C445.781 865.254 442.909 875.257 437.517 885.342C432.124 895.427 424.211 903.341 414.127 908.734C404.044 914.128 394.042 917 366.461 917H83.5389C55.9576 917 45.9559 914.128 35.8726 908.734C25.7893 903.341 17.8758 895.427 12.4832 885.342C7.09054 875.257 4.21875 865.254 4.21875 837.669V79.331C4.21875 51.7459 7.09054 41.7429 12.4832 31.6582C17.8758 21.5734 25.7893 13.6589 35.8726 8.26554C45.9559 2.87218 55.9576 0 83.5389 0Z" fill="url(#paint1_linear_0_1)" fill-opacity="0.1" style="mix-blend-mode:multiply"/>
<path fill-rule="evenodd" clip-rule="evenodd" d="M203.906 30.9417H246.094C247.647 30.9417 248.906 32.2011 248.906 33.7546C248.906 35.3081 247.647 36.5675 246.094 36.5675H203.906C202.353 36.5675 201.094 35.3081 201.094 33.7546C201.094 32.2011 202.353 30.9417 203.906 30.9417Z" fill="#E1E1E1"/>
<path fill-rule="evenodd" clip-rule="evenodd" d="M270 39.3804C273.107 39.3804 275.625 36.8616 275.625 33.7546C275.625 30.6476 273.107 28.1288 270 28.1288C266.893 28.1288 264.375 30.6476 264.375 33.7546C264.375 36.8616 266.893 39.3804 270 39.3804Z" fill="#E1E1E1"/>
<path fill-rule="evenodd" clip-rule="evenodd" d="M118.125 19.6902C120.937 19.6902 122.342 21.0972 122.342 23.9113V26.7224C122.342 39.1505 132.416 49.2255 144.842 49.2255H305.155C317.581 49.2255 327.655 39.1505 327.655 26.7224V23.9113C327.655 21.0972 329.061 19.6902 331.872 19.6902L372.012 19.6902C390.817 19.6902 397.637 21.6485 404.512 25.3258C411.387 29.0031 416.782 34.3994 420.459 41.2753C424.136 48.1512 426.094 54.9715 426.094 73.7795V843.221C426.094 862.029 424.136 868.849 420.459 875.725C416.782 882.601 411.387 887.997 404.512 891.674C397.637 895.351 390.817 897.31 372.012 897.31H77.9882C59.1827 897.31 52.3634 895.351 45.4884 891.674C38.6134 887.997 33.2179 882.601 29.5411 875.725C25.8643 868.849 23.9063 862.029 23.9062 843.221V73.7795C23.9062 54.9715 25.8643 48.1512 29.5411 41.2753C33.2179 34.3994 38.6134 29.0031 45.4884 25.3258C52.3634 21.6485 59.1827 19.6902 77.9882 19.6902L118.125 19.6902Z" fill="#0B162B"/>
<mask id="mask0_0_1" style="mask-type:alpha" maskUnits="userSpaceOnUse" x="23" y="19" width="404" height="879">
<path fill-rule="evenodd" clip-rule="evenodd" d="M118.125 19.6902C120.937 19.6902 122.342 21.0972 122.342 23.9113V26.7224C122.342 39.1505 132.416 49.2255 144.842 49.2255H305.155C317.581 49.2255 327.655 39.1505 327.655 26.7224V23.9113C327.655 21.0972 329.061 19.6902 331.872 19.6902L372.012 19.6902C390.817 19.6902 397.637 21.6485 404.512 25.3258C411.387 29.0031 416.782 34.3994 420.459 41.2753C424.136 48.1512 426.094 54.9715 426.094 73.7795V843.221C426.094 862.029 424.136 868.849 420.459 875.725C416.782 882.601 411.387 887.997 404.512 891.674C397.637 895.351 390.817 897.31 372.012 897.31H77.9882C59.1827 897.31 52.3634 895.351 45.4884 891.674C38.6134 887.997 33.2179 882.601 29.5411 875.725C25.8643 868.849 23.9063 862.029 23.9062 843.221V73.7795C23.9062 54.9715 25.8643 48.1512 29.5411 41.2753C33.2179 34.3994 38.6134 29.0031 45.4884 25.3258C52.3634 21.6485 59.1827 19.6902 77.9882 19.6902L118.125 19.6902Z" fill="white"/>
</mask>
<g mask="url(#mask0_0_1)">
</g>
<defs>
<linearGradient id="paint0_linear_0_1" x1="484.578" y1="309.417" x2="484.578" y2="80.6331" gradientUnits="userSpaceOnUse">
<stop/>
<stop offset="1" stop-opacity="0.01"/>
</linearGradient>
<linearGradient id="paint1_linear_0_1" x1="235.242" y1="917" x2="235.242" y2="874.462" gradientUnits="userSpaceOnUse">
<stop/>
<stop offset="1" stop-opacity="0.01"/>
</linearGradient>
</defs>
</svg>
