<svg width="30" height="30" viewBox="0 0 30 30" fill="none" xmlns="http://www.w3.org/2000/svg">
<rect width="30" height="30" />
<path fill-rule="evenodd" clip-rule="evenodd" d="M4.28533 0.542419C2.12068 0.542419 0.548511 1.93044 0.548511 3.83947C0.548511 5.75517 2.15811 7.20431 4.28533 7.20431C6.44998 7.20431 8.02215 5.78948 8.02215 3.80036C7.92234 1.88465 6.38136 0.542419 4.28533 0.542419ZM1.16624 8.54581C0.823138 8.54581 0.542419 8.84618 0.542419 9.2133V28.5706C0.542419 28.9377 0.823138 29.2381 1.16624 29.2381H7.40442C7.74752 29.2381 8.02824 28.9377 8.02824 28.5706V9.2133C8.02824 8.84618 7.74752 8.54581 7.40442 8.54581H1.16624ZM9.8997 9.2133C9.8997 8.84618 10.1804 8.54581 10.5235 8.54581H16.7617C17.1048 8.54581 17.3855 8.84618 17.3855 9.2133V10.208C18.3899 9.45375 20.0486 8.54581 22.2445 8.54581C27.0728 8.54581 29.2381 12.9045 29.2381 17.2232V28.5706C29.2381 28.9377 28.9574 29.2381 28.6143 29.2381H22.9999C22.6555 29.2381 22.3761 28.939 22.3761 28.5706V18.2244C22.3761 16.6425 21.2403 15.3539 19.7931 15.2338C19.7199 15.2207 19.6471 15.2207 19.5739 15.2207H19.5689H19.5639C19.4907 15.2207 19.4179 15.2207 19.3447 15.2338C17.8974 15.3539 16.7617 16.6425 16.7617 18.2244V18.3913V18.5582V28.5706C16.7617 28.939 16.4822 29.2381 16.1379 29.2381H10.5235C10.1804 29.2381 9.8997 28.9377 9.8997 28.5706V9.2133Z" fill="#dbd8d89a"/>
</svg>
