<svg width="100" height="18" viewBox="0 0 100 18" fill="none" xmlns="http://www.w3.org/2000/svg">
<rect width="100" height="18" fill="#F5F5F5"/>
<path fill-rule="evenodd" clip-rule="evenodd" d="M5.07131 0.399902V9.76685C5.07131 11.6433 5.97747 12.9968 8.09184 12.9968C10.2221 12.9968 11.2078 11.5049 11.2078 9.76685V0.399902H16.2791V17.2112H11.2713V15.1194H11.2237C9.49083 17.5803 6.86773 17.5496 6.37491 17.5496C2.05078 17.5496 0 14.4119 0 10.9512V0.399902H5.07131ZM31.2505 0.384521V5.19873C30.5828 5.07568 29.8515 5.07568 29.6289 5.07568C27.1966 5.07568 25.4955 6.72144 25.4955 9.84375V17.2112H20.5196V0.399902H25.3366V2.84546H25.3843C26.3381 0.922852 28.0868 0.215332 29.8833 0.215332C30.2648 0.215332 30.8848 0.292236 31.2505 0.384521ZM38.2413 17.5342C35.2207 17.5342 32.4546 15.627 32.4546 12.52V12.3816C32.4546 8.36719 36.731 7.229 40.1172 7.229H41.8182C42.7721 7.229 43.1854 6.7522 43.1854 6.07544C43.1854 4.9834 42.2793 3.98364 40.4351 3.98364C38.8931 3.98364 37.7008 4.86035 37.3192 6.27539L32.8679 5.3064C33.4561 1.72266 37.0331 0 40.6736 0C44.9977 0 48.1772 2.26099 48.1772 6.78296V14.5042C48.1772 15.4116 48.209 16.3191 48.3203 17.2112H43.5828C43.4716 16.5652 43.4716 15.7654 43.4716 15.1194L43.4239 15.104C42.1044 16.9036 40.1331 17.5342 38.2413 17.5342ZM39.7039 13.9504C41.9295 13.9504 43.1536 12.3816 43.1536 10.7051V10.3206H40.1172C39.068 10.3206 37.5895 10.9204 37.5895 12.2432C37.5895 13.4429 38.6228 13.9504 39.7039 13.9504ZM63.4348 17.2112V7.875C63.4348 5.99854 62.5127 4.61426 60.4142 4.61426C58.2681 4.61426 57.2824 6.15234 57.2824 7.875V17.2112H52.227V0.399902H57.2506V2.58398H57.2983C58.6337 0.322998 61.543 0.0615234 62.2107 0.0615234C66.6302 0.0615234 68.5061 3.2915 68.5061 6.7522V17.2112H63.4348ZM71.4907 8.84399C71.4907 3.81445 75.7672 0 81.0134 0C86.2595 0 90.4724 3.73755 90.4724 8.75171C90.4724 13.812 86.1959 17.5803 80.9498 17.5803C75.7036 17.5803 71.4907 13.8889 71.4907 8.84399ZM76.6892 8.78247C76.6892 11.3357 78.6128 13.0737 80.9816 13.0737C83.3662 13.0737 85.2739 11.3357 85.2739 8.78247C85.2739 6.24463 83.3503 4.49121 80.9657 4.49121C78.5969 4.49121 76.6892 6.24463 76.6892 8.78247Z" fill="#0B162B"/>
<path fill-rule="evenodd" clip-rule="evenodd" d="M96.3822 17.5803C94.4586 17.5803 92.8688 16.0422 92.8688 14.1965C92.8688 12.3047 94.4427 10.7666 96.3822 10.7666C98.3694 10.7666 99.9114 12.3047 99.9114 14.1965C99.9114 16.0422 98.3535 17.5803 96.3822 17.5803Z" fill="#5558DB"/>
</svg>
