<svg width="48" height="48" viewBox="0 0 48 48" fill="none" xmlns="http://www.w3.org/2000/svg">
<rect width="48" height="48"/>
<path fill-rule="evenodd" clip-rule="evenodd" d="M25.7134 0.0594766C11.1092 -0.953334 -0.953346 11.1068 0.0594657 25.711C0.940276 38.4047 12.014 48 24.7365 48H26.3998C29.0518 48 31.1998 45.852 31.1998 43.1999V35.9999C31.1998 33.3478 33.3478 31.1998 35.9999 31.1998H43.1999C45.852 31.1998 48 29.0518 48 26.3998V24.7365C48 12.014 38.4047 0.940286 25.7134 0.0594766ZM20.3997 4.79953C22.3869 4.79953 23.9997 6.41235 23.9997 8.39957C23.9997 10.3868 22.3869 11.9996 20.3997 11.9996C18.4125 11.9996 16.7997 10.3868 16.7997 8.39957C16.7997 6.41235 18.4125 4.79953 20.3997 4.79953ZM8.39956 31.1998C6.41234 31.1998 4.79952 29.587 4.79952 27.5998C4.79952 25.6126 6.41234 23.9997 8.39956 23.9997C10.3868 23.9997 11.9996 25.6126 11.9996 27.5998C11.9996 29.587 10.3868 31.1998 8.39956 31.1998ZM10.7996 19.1997C8.81236 19.1997 7.19955 17.5869 7.19955 15.5996C7.19955 13.6124 8.81236 11.9996 10.7996 11.9996C12.7868 11.9996 14.3996 13.6124 14.3996 15.5996C14.3996 17.5869 12.7868 19.1997 10.7996 19.1997ZM21.5997 43.1999C18.9477 43.1999 16.7997 41.0519 16.7997 38.3999C16.7997 35.7479 18.9477 33.5998 21.5997 33.5998C24.2517 33.5998 26.3998 35.7479 26.3998 38.3999C26.3998 41.0519 24.2517 43.1999 21.5997 43.1999ZM32.3998 14.3996C30.4126 14.3996 28.7998 12.7868 28.7998 10.7996C28.7998 8.81237 30.4126 7.19955 32.3998 7.19955C34.387 7.19955 35.9999 8.81237 35.9999 10.7996C35.9999 12.7868 34.387 14.3996 32.3998 14.3996ZM39.5999 26.3998C37.6127 26.3998 35.9999 24.7869 35.9999 22.7997C35.9999 20.8125 37.6127 19.1997 39.5999 19.1997C41.5871 19.1997 43.1999 20.8125 43.1999 22.7997C43.1999 24.7869 41.5871 26.3998 39.5999 26.3998Z" fill="#5558DB"/>
</svg>
