<svg width="48" height="48" viewBox="0 0 48 48" fill="none" xmlns="http://www.w3.org/2000/svg">
<rect width="48" height="48" fill="#F5F5F5"/>
<path fill-rule="evenodd" clip-rule="evenodd" d="M40.8531 0C39.024 0 37.195 0.696555 35.7987 2.09282L32.8371 5.05436L42.9459 15.1631L45.9075 12.2016C48.6975 9.41154 48.6975 4.88536 45.9075 2.09282C44.5112 0.696555 42.6821 0 40.8531 0ZM29.0463 8.84514L5.03793 32.8534C5.03793 32.8534 7.57777 32.866 8.82873 34.117C10.0797 35.3679 10.0528 37.8682 10.0528 37.8682C10.0528 37.8682 12.6296 37.9178 13.8831 39.1713C15.1366 40.4248 15.1467 42.9621 15.1467 42.9621L39.1551 18.9539L29.0463 8.84514ZM1.67656 37.9077L0.0180855 46.7627C-0.115856 47.4855 0.514483 48.1159 1.23726 47.9819L10.0923 46.3235L1.67656 37.9077Z" fill="#5558DB"/>
</svg>
