<svg width="30" height="25" viewBox="0 0 30 25" fill="none" xmlns="http://www.w3.org/2000/svg">
<rect width="30" height="25"/>
<path fill-rule="evenodd" clip-rule="evenodd" d="M29.3949 3.7716C28.3354 4.25021 27.1967 4.57226 26.001 4.71987C27.2187 3.97289 28.1595 2.7965 28.5992 1.39199C27.4561 2.08083 26.19 2.5818 24.8447 2.85018C23.7677 1.68274 22.2334 0.953644 20.532 0.953644C17.27 0.953644 14.6234 3.64636 14.6234 6.96529C14.6234 7.43495 14.6762 7.89567 14.7773 8.33402C9.86663 8.08353 5.51432 5.68603 2.59959 2.04952C2.08962 2.93963 1.79947 3.97289 1.79947 5.07771C1.79947 7.1621 2.84138 9.00048 4.42844 10.0785C3.45686 10.0472 2.54683 9.77878 1.75111 9.32701C1.75111 9.35385 1.75111 9.37621 1.75111 9.40305C1.75111 12.3149 3.78658 14.7438 6.49029 15.2984C5.99351 15.4371 5.47475 15.5086 4.93401 15.5086C4.55153 15.5086 4.18225 15.4728 3.82175 15.4013C4.57352 17.7854 6.75407 19.5298 9.33908 19.5745C7.32119 21.1893 4.77135 22.1465 2.00169 22.1465C1.5225 22.1465 1.0565 22.1197 0.594887 22.066C3.20627 23.7702 6.31444 24.7632 9.65121 24.7632C20.5188 24.7632 26.4626 15.6026 26.4626 7.66307C26.4626 7.39917 26.4582 7.13974 26.445 6.88031C27.6012 6.03939 28.6036 4.9793 29.3949 3.7716" fill="#dbd8d89a"/>
</svg>
