<svg width="119" height="33" viewBox="0 0 119 33" fill="none" xmlns="http://www.w3.org/2000/svg">
<path fill-rule="evenodd" clip-rule="evenodd" d="M6.64342 0.733154V17.9059C6.64342 21.3461 7.83049 23.8275 10.6003 23.8275C13.391 23.8275 14.6822 21.0923 14.6822 17.9059V0.733154H21.3256V31.5538H14.7655V27.7189H14.703C12.433 32.2306 8.99673 32.1742 8.35113 32.1742C2.68652 32.1742 0 26.4218 0 20.0771V0.733154H6.64342ZM40.9381 0.704956V9.53101C40.0634 9.30542 39.1054 9.30542 38.8139 9.30542C35.6275 9.30542 33.3992 12.3226 33.3992 18.0469V31.5538H26.8807V0.733154H33.1909V5.21667H33.2534C34.5029 1.69189 36.7938 0.394775 39.1471 0.394775C39.6469 0.394775 40.4591 0.535767 40.9381 0.704956ZM50.0961 32.146C46.1392 32.146 42.5155 28.6494 42.5155 22.9534V22.6996C42.5155 15.3398 48.1176 13.2532 52.5535 13.2532H54.7819C56.0314 13.2532 56.5729 12.379 56.5729 11.1383C56.5729 9.13623 55.3858 7.30334 52.97 7.30334C50.9499 7.30334 49.388 8.91064 48.8882 11.5049L43.057 9.72839C43.8275 3.1582 48.5133 0 53.2824 0C58.947 0 63.1122 4.14514 63.1122 12.4354V26.5909C63.1122 28.2546 63.1538 29.9183 63.2996 31.5538H57.0935C56.9478 30.3695 56.9478 28.9032 56.9478 27.7189L56.8853 27.6907C55.1567 30.9899 52.5743 32.146 50.0961 32.146ZM52.012 25.5758C54.9277 25.5758 56.5312 22.6996 56.5312 19.626V18.921H52.5535C51.179 18.921 49.2422 20.0208 49.2422 22.4458C49.2422 24.6453 50.5959 25.5758 52.012 25.5758ZM83.0996 31.5538V14.4375C83.0996 10.9973 81.8917 8.45947 79.1427 8.45947C76.3312 8.45947 75.04 11.2793 75.04 14.4375V31.5538H68.4174V0.733154H74.9983V4.7373H75.0608C76.8102 0.592163 80.6213 0.112793 81.496 0.112793C87.2855 0.112793 89.743 6.03442 89.743 12.379V31.5538H83.0996ZM93.6529 16.214C93.6529 6.99316 99.255 0 106.127 0C113 0 118.519 6.85217 118.519 16.0448C118.519 25.322 112.917 32.2306 106.044 32.2306C99.1717 32.2306 93.6529 25.463 93.6529 16.214ZM100.463 16.1012C100.463 20.7821 102.983 23.9685 106.086 23.9685C109.21 23.9685 111.709 20.7821 111.709 16.1012C111.709 11.4485 109.189 8.23389 106.065 8.23389C102.962 8.23389 100.463 11.4485 100.463 16.1012Z" fill="#0B162B"/>
</svg>
